<svg width="500" height="500" viewBox="0 0 500 500" fill="none" xmlns="http://www.w3.org/2000/svg">
<g clip-path="url(#clip0_1_2)">
<rect width="500" height="500" rx="80" fill="url(#paint0_linear_1_2)"/>
<path d="M299.1 242.28C312.473 244.773 323.467 251.46 332.08 262.34C340.693 273.22 345 285.687 345 299.74C345 312.433 341.827 323.653 335.48 333.4C329.36 342.92 320.407 350.4 308.62 355.84C296.833 361.28 282.893 364 266.8 364H164.46V126.68H262.38C278.473 126.68 292.3 129.287 303.86 134.5C315.647 139.713 324.487 146.967 330.38 156.26C336.5 165.553 339.56 176.093 339.56 187.88C339.56 201.707 335.82 213.267 328.34 222.56C321.087 231.853 311.34 238.427 299.1 242.28ZM212.06 224.6H255.58C266.913 224.6 275.64 222.107 281.76 217.12C287.88 211.907 290.94 204.54 290.94 195.02C290.94 185.5 287.88 178.133 281.76 172.92C275.64 167.707 266.913 165.1 255.58 165.1H212.06V224.6ZM260 325.24C271.56 325.24 280.513 322.52 286.86 317.08C293.433 311.64 296.72 303.933 296.72 293.96C296.72 283.76 293.32 275.827 286.52 270.16C279.72 264.267 270.54 261.32 258.98 261.32H212.06V325.24H260Z" fill="white"/>
</g>
<defs>
<linearGradient id="paint0_linear_1_2" x1="250.1" y1="9.70638e-06" x2="249.9" y2="500" gradientUnits="userSpaceOnUse">
<stop stop-color="#2563EB"/>
<stop offset="1" stop-color="#1E3A8A"/>
</linearGradient>
<clipPath id="clip0_1_2">
<rect width="500" height="500" rx="80" fill="white"/>
</clipPath>
</defs>
</svg>
