<svg width="64" height="64" viewBox="0 0 64 64" fill="none" xmlns="http://www.w3.org/2000/svg">
  <defs>
    <linearGradient id="g" x1="10" y1="6" x2="54" y2="58" gradientUnits="userSpaceOnUse">
      <stop stop-color="#4F46E5"/>
      <stop offset="1" stop-color="#7C3AED"/>
    </linearGradient>
    <filter id="s" x="-20%" y="-20%" width="140%" height="140%" color-interpolation-filters="sRGB">
      <feDropShadow dx="0" dy="6" stdDeviation="6" flood-color="#000" flood-opacity="0.35"/>
    </filter>
  </defs>

  <rect x="8" y="8" width="48" height="48" rx="14" fill="url(#g)" filter="url(#s)"/>
  <path d="M28.3 21.2h9.4c4.1 0 6.9 2.1 6.9 5.6 0 2.2-1.1 3.9-3 4.7 2.4.8 3.8 2.6 3.8 5 0 3.7-2.9 6.3-7.3 6.3H28.3V21.2Zm9 9.2c2.1 0 3.4-1 3.4-2.5 0-1.6-1.3-2.6-3.4-2.6h-5.1v5.1h5.1Zm.6 9.1c2.3 0 3.8-1.1 3.8-2.9 0-1.7-1.5-2.8-3.8-2.8h-5.7v5.7h5.7Z" fill="#fff"/>
</svg>
